<?xml version="1.0" encoding="UTF-8" standalone="no"?>
<!DOCTYPE svg PUBLIC "-//W3C//DTD SVG 1.1//EN"
 "http://www.w3.org/Graphics/SVG/1.1/DTD/svg11.dtd">
<!-- Generated by graphviz version 2.38.0 (20140413.2041)
 -->
<!-- Title: G Pages: 1 -->
<svg width="322pt" height="124pt"
 viewBox="0.00 0.00 321.62 123.98" xmlns="http://www.w3.org/2000/svg" xmlns:xlink="http://www.w3.org/1999/xlink">
<g id="graph0" class="graph" transform="scale(1 1) rotate(0) translate(7.992 115.992)">
<title>G</title>
<polygon fill="#000000" stroke="none" points="-7.992,7.992 -7.992,-115.992 313.629,-115.992 313.629,7.992 -7.992,7.992"/>
<!-- src/index -->
<g id="node1" class="node"><title>src/index</title>
<ellipse fill="none" stroke="#c6c5fe" cx="149.894" cy="-90" rx="48.1917" ry="18"/>
<text text-anchor="middle" x="149.894" y="-86.3" font-family="Arial" font-size="14.00" fill="#c6c5fe">src/index</text>
</g>
<!-- src/spec&#45;input -->
<g id="node2" class="node"><title>src/spec&#45;input</title>
<ellipse fill="none" stroke="#cfffac" cx="68.8939" cy="-18" rx="68.7879" ry="18"/>
<text text-anchor="middle" x="68.8939" y="-14.3" font-family="Arial" font-size="14.00" fill="#cfffac">src/spec&#45;input</text>
</g>
<!-- src/index&#45;&gt;src/spec&#45;input -->
<g id="edge1" class="edge"><title>src/index&#45;&gt;src/spec&#45;input</title>
<path fill="none" stroke="#757575" d="M131.514,-73.1159C120.971,-64.0046 107.543,-52.4002 95.8271,-42.2756"/>
<polygon fill="#757575" stroke="#757575" points="97.9011,-39.4421 88.0465,-35.5516 93.3241,-44.7384 97.9011,-39.4421"/>
</g>
<!-- src/spec&#45;output -->
<g id="node3" class="node"><title>src/spec&#45;output</title>
<ellipse fill="none" stroke="#cfffac" cx="230.894" cy="-18" rx="74.9875" ry="18"/>
<text text-anchor="middle" x="230.894" y="-14.3" font-family="Arial" font-size="14.00" fill="#cfffac">src/spec&#45;output</text>
</g>
<!-- src/index&#45;&gt;src/spec&#45;output -->
<g id="edge2" class="edge"><title>src/index&#45;&gt;src/spec&#45;output</title>
<path fill="none" stroke="#757575" d="M168.274,-73.1159C178.817,-64.0046 192.245,-52.4002 203.961,-42.2756"/>
<polygon fill="#757575" stroke="#757575" points="206.464,-44.7384 211.741,-35.5516 201.887,-39.4421 206.464,-44.7384"/>
</g>
</g>
</svg>
